<mxfile host="app.diagrams.net" modified="2022-11-14T11:20:49.125Z" agent="5.0 (Windows NT 10.0; Win64; x64) AppleWebKit/537.36 (KHTML, like Gecko) Chrome/107.0.0.0 Safari/537.36 Edg/107.0.1418.42" etag="HDXT4Y64HmFTLyvgkgja" version="20.5.3" type="github">
  <diagram id="sADmDsKKLAJHKcJqgArQ" name="Page-1">
    <mxGraphModel dx="1375" dy="794" grid="1" gridSize="10" guides="1" tooltips="1" connect="1" arrows="1" fold="1" page="1" pageScale="1" pageWidth="1169" pageHeight="827" math="0" shadow="0">
      <root>
        <mxCell id="0" />
        <mxCell id="1" parent="0" />
      </root>
    </mxGraphModel>
  </diagram>
</mxfile>
